<?xml version="1.0" encoding="utf-8"?>
<!-- Generator: Adobe Illustrator 27.1.1, SVG Export Plug-In . SVG Version: 6.00 Build 0)  -->
<svg version="1.1" id="Layer_1" xmlns="http://www.w3.org/2000/svg" xmlns:xlink="http://www.w3.org/1999/xlink" x="0px" y="0px"
	 viewBox="0 0 1024 512" style="enable-background:new 0 0 1024 512;" xml:space="preserve">
<style type="text/css">
	.st0{fill:#FFFFFF;}
	.st1{font-family:'MyriadPro-Regular';}
	.st2{font-size:144.92px;}
	.st3{fill:#5CB8E4;}
	.st4{letter-spacing:-2.1;}
</style>
<g id="Layer_1_00000062154450364790615280000005527829537202297749_">
	<g>
		<rect x="0.5" y="0.5" width="1023" height="511"/>
		<path d="M1023,1v510H1V1H1023 M1024,0H0v512h1024V0L1024,0z"/>
	</g>
</g>
<g id="Layer_2_00000010273585135042717440000008510851468872946590_">
	<text transform="matrix(0.97 0 0 1 55.3301 286.8999)" class="st0 st1 st2">films</text>
	<text transform="matrix(0.97 0 0 1 334.9229 286.8999)" class="st3 st1 st2 st4">P</text>
	<text transform="matrix(0.97 0 0 1 406.1885 286.8999)" class="st3 st1 st2">er</text>
	<text transform="matrix(0.97 0 0 1 522.5791 286.8999)" class="st0 st1 st2">S</text>
	<text transform="matrix(0.97 0 0 1 592.7197 286.8999)" class="st0 st1 st2">e</text>
	<text transform="matrix(0.97 0 0 1 663.1416 286.8999)" class="st0 st1 st2">c</text>
	<text transform="matrix(0.97 0 0 1 725.2798 286.8999)" class="st0 st1 st2">ond</text>
</g>
</svg>
