<?xml version="1.0" encoding="UTF-8"?>
<svg id="Layer_1" data-name="Layer 1" xmlns="http://www.w3.org/2000/svg" viewBox="0 0 532.02 479.36">
  <defs>
    <style>
      .cls-1 {
        fill: #fff;
      }
    </style>
  </defs>
  <path class="cls-1" d="m63.98,255.92C18.28,210.22,4.36,154.34,25.78,102.63,46.64,52.26,96.09,18.42,148.83,18.42c37.07,0,73.26,16.59,104.65,47.99l11.31,11.31,11.31-11.31c32.97-32.97,70.68-50.4,109.05-50.4,52.08,0,100.76,33.05,121.13,82.24,9.95,24.02,12.31,50.19,6.82,75.7-6.26,29.14-22.24,56.71-47.5,81.97l-200.82,200.82L63.98,255.92Z"/>
  <path d="m385.17,32.01c45.68,0,88.41,29.08,106.34,72.36,8.7,21,10.76,43.9,5.96,66.22-5.6,26.07-20.13,50.98-43.17,74.01l-189.5,189.5L75.3,244.6c-21.99-21.99-35.79-45.9-41-71.05-4.49-21.66-2.32-44.07,6.27-64.81,8.75-21.12,24.09-40.09,43.21-53.4,19.66-13.69,42.16-20.93,65.06-20.93,32.74,0,65.01,14.97,93.34,43.3l22.63,22.63,22.63-22.63c29.91-29.91,63.7-45.71,97.74-45.71h0m0-32c-39.21,0-81.49,16.21-120.36,55.09C227.63,17.93,186.94,2.42,148.83,2.42,30.57,2.42-62.67,151.89,52.67,267.23l212.13,212.13,212.13-212.13C594.91,149.26,504.15.01,385.17.01h0Z"/>
</svg>